<svg xmlns="http://www.w3.org/2000/svg" xmlns:xlink="http://www.w3.org/1999/xlink" width="14" height="14" viewBox="0 0 14 14">
  <defs>
    <clipPath id="clip-path">
      <rect id="Rectangle_1257" data-name="Rectangle 1257" width="14" height="14" transform="translate(421 1628)" fill="#777" stroke="#707070" stroke-width="1"/>
    </clipPath>
  </defs>
  <g id="Mask_Group_93" data-name="Mask Group 93" transform="translate(-421 -1628)" clip-path="url(#clip-path)">
    <g id="calendar" transform="translate(420.72 1627.72)">
      <path id="Path_234" data-name="Path 234" d="M1.365,13.328a.952.952,0,0,0,.952.952h9.927a.952.952,0,0,0,.952-.952v-7.6H1.365ZM9.557,7.754H11.1V9.3H9.557Zm0,2.625H11.1v1.544H9.557ZM6.509,7.754H8.051V9.3H6.509Zm0,2.625H8.051v1.544H6.509ZM3.457,7.754H5V9.3H3.457Zm0,2.625H5v1.544H3.457Z" fill="#777"/>
      <path id="Path_235" data-name="Path 235" d="M10.267,3.4a.168.168,0,0,0,.168-.168V.448a.168.168,0,0,0-.336,0V3.233a.168.168,0,0,0,.168.168Z" fill="#777"/>
      <path id="Path_236" data-name="Path 236" d="M12.243,1.755H10.765V3.233a.506.506,0,1,1-1.012,0V1.755H4.8V3.233a.506.506,0,1,1-1.01,0V1.755H2.317a.954.954,0,0,0-.952.952V5.4H13.2V2.707a.954.954,0,0,0-.952-.952Z" fill="#777"/>
      <path id="Path_237" data-name="Path 237" d="M4.293,3.4a.168.168,0,0,0,.17-.168V.448a.17.17,0,0,0-.338,0V3.233a.168.168,0,0,0,.168.168Z" fill="#777"/>
    </g>
  </g>
</svg>
