<svg xmlns="http://www.w3.org/2000/svg" xmlns:xlink="http://www.w3.org/1999/xlink" width="24" height="24" viewBox="0 0 24 24">
  <defs>
    <clipPath id="clip-path">
      <rect id="Rectangle_1529" data-name="Rectangle 1529" width="24" height="24" transform="translate(114 219)" fill="#c20000" stroke="#707070" stroke-width="1"/>
    </clipPath>
  </defs>
  <g id="Mask_Group_290" data-name="Mask Group 290" transform="translate(-114 -219)" clip-path="url(#clip-path)">
    <g id="flash" transform="translate(114 219)">
      <g id="Group_2561" data-name="Group 2561">
        <g id="Group_2560" data-name="Group 2560">
          <path id="Path_739" data-name="Path 739" d="M18.763,8.231A.4.4,0,0,0,18.4,8H13.66L18.338.614A.4.4,0,0,0,18,0H11.6a.4.4,0,0,0-.358.221l-6,12A.4.4,0,0,0,5.6,12.8H9.713L5.231,23.445a.4.4,0,0,0,.675.413l12.8-15.2A.4.4,0,0,0,18.763,8.231Z" fill="#c20000"/>
        </g>
      </g>
    </g>
  </g>
</svg>
