<svg xmlns="http://www.w3.org/2000/svg" xmlns:xlink="http://www.w3.org/1999/xlink" width="41" height="41" viewBox="0 0 41 41">
  <defs>
    <clipPath id="clip-path">
      <rect id="Rectangle_1537" data-name="Rectangle 1537" width="41" height="41" transform="translate(130 454)" fill="#fff" stroke="#707070" stroke-width="1"/>
    </clipPath>
  </defs>
  <g id="Mask_Group_294" data-name="Mask Group 294" transform="translate(-130 -454)" clip-path="url(#clip-path)">
    <g id="news2" transform="translate(130 457.906)">
      <g id="Group_2565" data-name="Group 2565">
        <path id="Path_750" data-name="Path 750" d="M19.013,35.716a23.1,23.1,0,0,0,4.536,6.836,23.1,23.1,0,0,0,4.536-6.836Z" transform="translate(-3.295 -10.095)" fill="#fff"/>
        <path id="Path_751" data-name="Path 751" d="M18.648,4.724A16.593,16.593,0,0,0,7.826,11.8H14.51a25.368,25.368,0,0,1,4.138-7.076Z" transform="translate(-1.356 -4.724)" fill="#fff"/>
        <path id="Path_752" data-name="Path 752" d="M28.084,42.792a16.593,16.593,0,0,0,10.822-7.076H32.222A25.368,25.368,0,0,1,28.084,42.792Z" transform="translate(-4.867 -10.095)" fill="#fff"/>
        <path id="Path_753" data-name="Path 753" d="M38.906,11.8A16.592,16.592,0,0,0,28.084,4.724,25.368,25.368,0,0,1,32.222,11.8h6.684Z" transform="translate(-4.867 -4.724)" fill="#fff"/>
        <path id="Path_754" data-name="Path 754" d="M28.085,11.85a23.1,23.1,0,0,0-4.536-6.836,23.1,23.1,0,0,0-4.536,6.836Z" transform="translate(-3.295 -4.775)" fill="#fff"/>
        <path id="Path_755" data-name="Path 755" d="M7.826,35.716a16.592,16.592,0,0,0,10.822,7.076,25.368,25.368,0,0,1-4.138-7.076H7.826Z" transform="translate(-1.356 -10.095)" fill="#fff"/>
        <path id="Path_756" data-name="Path 756" d="M0,16.155v13.8H40.508v-13.8ZM12.45,27.066H10.733L7.569,22.031v5.141H5.748v-8.73H7.466l3.163,5.034V18.429H12.45Zm5.8-6.783h-2.89V21.89h2.677v1.821H15.358v1.608h2.89V27.14H13.537V18.461h4.711Zm8.583,6.831-1.727.012-1.417-4.916-1.418,4.9-1.728.012-1.671-8.45,1.787-.353.918,4.639,1.279-4.421,1.673,0L25.8,22.964l.921-4.63,1.786.356Zm7.894-2.192a2.9,2.9,0,0,1-2.957,2.251,4.154,4.154,0,0,1-3.087-1.325l1.35-1.223a2.363,2.363,0,0,0,1.737.727,1.122,1.122,0,0,0,1.164-.749c.088-.494-.65-.807-.878-.891-1.075-.4-2.029-.821-2.069-.839l-.066-.029-.06-.039a2.245,2.245,0,0,1-1-2.222,2.48,2.48,0,0,1,1.8-2,4.082,4.082,0,0,1,3.555.778l-1.172,1.394.006,0a2.264,2.264,0,0,0-1.863-.433.651.651,0,0,0-.519.517.436.436,0,0,0,.148.4c.249.109,1.034.447,1.876.758C34.456,22.655,34.9,23.938,34.725,24.921Z" transform="translate(0 -6.705)" fill="#fff"/>
      </g>
    </g>
  </g>
</svg>
