<svg xmlns="http://www.w3.org/2000/svg" xmlns:xlink="http://www.w3.org/1999/xlink" width="16" height="16" viewBox="0 0 16 16">
  <defs>
    <clipPath id="clip-path">
      <rect id="Rectangle_1247" data-name="Rectangle 1247" width="16" height="16" transform="translate(1163 84)" fill="#1a1a1a" stroke="#707070" stroke-width="1"/>
    </clipPath>
  </defs>
  <g id="Mask_Group_89" data-name="Mask Group 89" transform="translate(-1163 -84)" clip-path="url(#clip-path)">
    <g id="user" transform="translate(1164.326 84)">
      <path id="Path_229" data-name="Path 229" d="M6.573,7.707A3.729,3.729,0,0,0,9.3,6.578a3.729,3.729,0,0,0,1.129-2.725A3.729,3.729,0,0,0,9.3,1.129,3.73,3.73,0,0,0,6.573,0,3.729,3.729,0,0,0,3.849,1.129,3.729,3.729,0,0,0,2.72,3.853,3.729,3.729,0,0,0,3.849,6.578,3.73,3.73,0,0,0,6.573,7.707Zm0,0" fill="#1a1a1a"/>
      <path id="Path_230" data-name="Path 230" d="M13.316,12.3a9.518,9.518,0,0,0-.13-1.011,7.965,7.965,0,0,0-.249-1.016,5.021,5.021,0,0,0-.418-.948,3.577,3.577,0,0,0-.63-.821,2.778,2.778,0,0,0-.905-.569A3.128,3.128,0,0,0,9.83,7.729a1.173,1.173,0,0,0-.626.266c-.188.122-.407.264-.652.421a3.739,3.739,0,0,1-.844.372,3.278,3.278,0,0,1-2.065,0A3.73,3.73,0,0,1,4.8,8.415c-.243-.155-.463-.3-.653-.421a1.171,1.171,0,0,0-.626-.266,3.124,3.124,0,0,0-1.155.209,2.776,2.776,0,0,0-.905.569,3.578,3.578,0,0,0-.63.821,5.031,5.031,0,0,0-.418.948,7.984,7.984,0,0,0-.249,1.016A9.485,9.485,0,0,0,.032,12.3c-.021.306-.032.624-.032.945a2.657,2.657,0,0,0,.789,2.01A2.841,2.841,0,0,0,2.822,16h7.7a2.84,2.84,0,0,0,2.033-.742,2.656,2.656,0,0,0,.789-2.01c0-.322-.011-.64-.032-.945Zm0,0" fill="#1a1a1a"/>
    </g>
  </g>
</svg>
