<svg xmlns="http://www.w3.org/2000/svg" xmlns:xlink="http://www.w3.org/1999/xlink" width="14" height="14" viewBox="0 0 14 14">
  <defs>
    <clipPath id="clip-path">
      <rect id="Rectangle_1352" data-name="Rectangle 1352" width="14" height="14" transform="translate(298 1628)" fill="#777" stroke="#707070" stroke-width="1"/>
    </clipPath>
  </defs>
  <g id="Mask_Group_180" data-name="Mask Group 180" transform="translate(-298 -1628)" clip-path="url(#clip-path)">
    <g id="user" transform="translate(299.16 1628)">
      <path id="Path_437" data-name="Path 437" d="M5.752,6.744a3.263,3.263,0,0,0,2.384-.988,3.263,3.263,0,0,0,.988-2.384A3.263,3.263,0,0,0,8.136.988,3.263,3.263,0,0,0,5.752,0,3.263,3.263,0,0,0,3.368.988,3.263,3.263,0,0,0,2.38,3.372a3.263,3.263,0,0,0,.988,2.384A3.263,3.263,0,0,0,5.752,6.744Zm0,0" fill="#777"/>
      <path id="Path_438" data-name="Path 438" d="M11.652,10.765a8.329,8.329,0,0,0-.113-.885,6.97,6.97,0,0,0-.218-.889,4.393,4.393,0,0,0-.366-.829,3.13,3.13,0,0,0-.551-.719,2.431,2.431,0,0,0-.792-.5A2.737,2.737,0,0,0,8.6,6.763,1.026,1.026,0,0,0,8.053,7c-.164.107-.356.231-.571.368a3.271,3.271,0,0,1-.739.325,2.868,2.868,0,0,1-1.807,0A3.264,3.264,0,0,1,4.2,7.363c-.212-.136-.4-.26-.571-.368a1.025,1.025,0,0,0-.548-.232,2.734,2.734,0,0,0-1.011.183,2.429,2.429,0,0,0-.792.5,3.131,3.131,0,0,0-.551.718,4.4,4.4,0,0,0-.366.83,6.986,6.986,0,0,0-.217.889,8.3,8.3,0,0,0-.113.885c-.019.268-.028.546-.028.827a2.325,2.325,0,0,0,.69,1.759A2.485,2.485,0,0,0,2.47,14H9.211a2.485,2.485,0,0,0,1.779-.649,2.324,2.324,0,0,0,.691-1.759c0-.282-.01-.56-.028-.827Zm0,0" fill="#777"/>
    </g>
  </g>
</svg>
