<svg xmlns="http://www.w3.org/2000/svg" xmlns:xlink="http://www.w3.org/1999/xlink" width="36" height="36" viewBox="0 0 36 36">
  <defs>
    <clipPath id="clip-path">
      <rect id="Rectangle_1568" data-name="Rectangle 1568" width="36" height="36" transform="translate(98 6170)" fill="#fff" stroke="#707070" stroke-width="1"/>
    </clipPath>
  </defs>
  <g id="Mask_Group_305" data-name="Mask Group 305" transform="translate(-98 -6170)" clip-path="url(#clip-path)">
    <g id="video" transform="translate(98 6170)">
      <g id="SVGCleanerId_0">
        <g id="Group_2576" data-name="Group 2576">
          <rect id="Rectangle_1569" data-name="Rectangle 1569" width="6.177" height="8.959" transform="translate(29.823 13.521)" fill="#fff"/>
        </g>
      </g>
      <g id="Group_2578" data-name="Group 2578">
        <g id="Group_2577" data-name="Group 2577">
          <rect id="Rectangle_1570" data-name="Rectangle 1570" width="6.177" height="8.959" transform="translate(29.823 13.521)" fill="#fff"/>
        </g>
      </g>
      <g id="Group_2580" data-name="Group 2580">
        <g id="Group_2579" data-name="Group 2579">
          <path id="Path_827" data-name="Path 827" d="M34.9,3.46H29.823v7.857H36V4.562A1.1,1.1,0,0,0,34.9,3.46Z" fill="#fff"/>
        </g>
      </g>
      <g id="Group_2582" data-name="Group 2582">
        <g id="Group_2581" data-name="Group 2581">
          <path id="Path_828" data-name="Path 828" d="M29.823,24.683V32.54H34.9a1.1,1.1,0,0,0,1.1-1.1V24.683Z" fill="#fff"/>
        </g>
      </g>
      <g id="Group_2584" data-name="Group 2584">
        <g id="Group_2583" data-name="Group 2583">
          <path id="Path_829" data-name="Path 829" d="M8.381,3.46V32.54H27.619V3.46ZM22.876,18.953,15.8,23.061a1.1,1.1,0,0,1-1.655-.953V13.892a1.1,1.1,0,0,1,1.655-.953l7.074,4.108A1.1,1.1,0,0,1,22.876,18.953Z" fill="#fff"/>
        </g>
      </g>
      <g id="Group_2586" data-name="Group 2586">
        <g id="Group_2585" data-name="Group 2585">
          <rect id="Rectangle_1571" data-name="Rectangle 1571" width="6.177" height="8.959" transform="translate(0 13.521)" fill="#fff"/>
        </g>
      </g>
      <g id="Group_2588" data-name="Group 2588">
        <g id="Group_2587" data-name="Group 2587">
          <path id="Path_830" data-name="Path 830" d="M1.1,3.46A1.1,1.1,0,0,0,0,4.562v6.755H6.177V3.46Z" fill="#fff"/>
        </g>
      </g>
      <g id="Group_2590" data-name="Group 2590">
        <g id="Group_2589" data-name="Group 2589">
          <path id="Path_831" data-name="Path 831" d="M0,24.683v6.755a1.1,1.1,0,0,0,1.1,1.1H6.177V24.683Z" fill="#fff"/>
        </g>
      </g>
    </g>
  </g>
</svg>
