<svg id="Group_2512" data-name="Group 2512" xmlns="http://www.w3.org/2000/svg" width="14" height="14" viewBox="0 0 14 14">
  <path id="Path_209" data-name="Path 209" d="M14.988,9.192a10.483,10.483,0,0,0-.579-3.738,1.852,1.852,0,0,0-1.094-.905,35.118,35.118,0,0,0-5.323-.281,35.151,35.151,0,0,0-5.3.272,1.716,1.716,0,0,0-.929.67,6.083,6.083,0,0,0-.7,3.122c-.092,1.953-.092,3.912,0,5.865a12.078,12.078,0,0,0,.191,1.81A3.382,3.382,0,0,0,1.7,17.238a1.733,1.733,0,0,0,.948.706,20.3,20.3,0,0,0,4.134.3,47.635,47.635,0,0,0,6.487-.253,1.727,1.727,0,0,0,.973-.706,2.555,2.555,0,0,0,.388-.905,13.347,13.347,0,0,0,.331-3.077C14.988,12.794,14.988,9.735,14.988,9.192ZM6.555,13.844v-5.6l3.765,2.815C9.264,11.889,7.872,12.831,6.555,13.844Z" transform="translate(-0.991 -4.258)" fill="#777"/>
</svg>
